<?xml version="1.0" standalone="no"?>
<!DOCTYPE svg PUBLIC "-//W3C//DTD SVG 20010904//EN"
 "http://www.w3.org/TR/2001/REC-SVG-20010904/DTD/svg10.dtd">
<svg version="1.0" xmlns="http://www.w3.org/2000/svg"
 width="700.000000pt" height="700.000000pt" viewBox="0 0 700.000000 700.000000"
 preserveAspectRatio="xMidYMid meet">
<metadata>
Created by potrace 1.11, written by Peter Selinger 2001-2013
</metadata>
<g transform="translate(0.000000,700.000000) scale(0.100000,-0.100000)"
fill="#000000" stroke="none">
<path d="M2305 5985 c-44 -7 -103 -14 -132 -14 -28 -1 -64 -6 -80 -12 -25 -11
-61 -19 -163 -36 -19 -3 -44 -12 -55 -19 -11 -8 -27 -14 -37 -14 -9 0 -32 -6
-50 -14 -18 -8 -68 -29 -112 -46 -323 -129 -649 -408 -837 -715 -49 -80 -112
-202 -149 -290 -26 -63 -70 -200 -70 -220 0 -11 -6 -29 -14 -40 -7 -11 -16
-38 -19 -60 -2 -22 -14 -112 -26 -200 -24 -172 -22 -253 6 -435 8 -52 17 -113
20 -135 3 -22 10 -49 16 -60 6 -11 14 -38 18 -60 13 -70 85 -257 139 -360 89
-169 204 -327 328 -452 95 -96 120 -117 225 -193 45 -33 87 -63 93 -67 14 -11
48 -30 97 -56 23 -11 44 -23 47 -26 8 -9 89 -46 155 -71 33 -12 74 -28 90 -35
70 -29 136 -48 215 -61 19 -3 58 -11 85 -19 72 -20 261 -28 456 -19 l169 7 0
31 c0 18 -4 36 -9 41 -6 6 -15 37 -21 70 -6 33 -17 94 -26 135 -21 107 -29
199 -29 359 l0 140 -38 -40 c-122 -126 -304 -104 -394 49 l-28 47 -5 383 -5
384 -349 -1 c-248 -2 -363 2 -398 10 -66 17 -136 73 -167 134 -54 104 -27 228
66 304 71 59 94 62 479 61 192 0 355 0 362 0 9 0 12 81 12 373 0 353 2 374 21
417 90 199 356 204 453 8 l26 -52 0 -373 0 -373 330 0 c330 0 331 0 354 22 42
42 302 218 321 218 7 0 32 11 56 25 60 33 109 55 124 55 7 0 18 7 25 15 7 8
20 15 29 15 9 0 48 11 86 25 39 13 91 27 118 31 26 4 47 9 47 13 -1 25 -85
207 -129 276 -14 22 -31 51 -38 64 -20 37 -114 159 -178 231 -132 149 -312
296 -452 370 -32 17 -71 39 -88 50 -34 23 -37 24 -125 57 -36 13 -80 30 -98
38 -18 8 -43 15 -55 15 -12 0 -31 7 -41 15 -11 8 -29 15 -40 15 -11 0 -33 4
-50 9 -84 26 -269 54 -436 66 -25 2 -81 -2 -125 -10z"/>
<path d="M4370 4779 c-25 -4 -85 -13 -135 -18 -146 -18 -295 -66 -488 -159
-85 -40 -131 -68 -256 -150 -132 -88 -359 -320 -468 -479 -25 -38 -59 -81 -74
-98 -58 -64 -195 -386 -229 -540 -21 -94 -29 -133 -39 -191 -14 -78 -14 -474
-1 -510 6 -15 15 -52 20 -83 32 -193 69 -301 177 -515 95 -190 192 -326 337
-474 282 -289 588 -456 1011 -553 90 -20 125 -23 355 -23 278 0 315 5 555 76
496 145 932 518 1160 993 66 137 97 224 136 379 16 66 34 137 39 157 6 20 10
151 10 290 0 284 -8 338 -89 594 -155 489 -539 921 -1011 1138 -182 84 -310
122 -527 157 -129 21 -390 26 -483 9z m274 -730 c55 -14 110 -59 139 -112 21
-41 22 -51 25 -427 2 -286 6 -386 15 -392 7 -4 176 -8 377 -8 230 0 379 -4
404 -11 23 -6 57 -29 85 -58 39 -38 49 -56 58 -101 24 -118 -26 -219 -132
-267 -36 -16 -76 -18 -411 -19 -204 0 -376 -4 -382 -8 -9 -5 -12 -105 -12
-374 0 -228 -4 -381 -11 -405 -14 -50 -69 -110 -125 -138 -65 -31 -159 -23
-218 18 -47 33 -82 80 -96 132 -6 21 -10 188 -10 403 0 284 -3 367 -12 371 -7
2 -107 2 -223 -1 -220 -4 -494 9 -557 28 -88 26 -138 101 -138 207 0 90 36
150 110 188 47 24 57 25 247 26 109 1 281 4 383 8 l185 6 5 390 c5 379 6 391
27 432 52 96 156 140 267 112z"/>
<path d="M3755 3061 c-166 -5 -194 -9 -223 -26 -51 -31 -72 -75 -72 -153 0
-102 33 -143 137 -171 35 -10 48 -9 71 3 51 26 251 249 290 323 15 28 15 33 0
31 -7 -1 -98 -4 -203 -7z"/>
<path d="M2675 3861 c-9 -8 -5 -536 4 -549 5 -9 10 3 14 35 10 84 39 207 53
224 8 8 19 30 25 47 6 18 15 32 20 32 5 0 9 9 9 19 0 11 4 22 9 25 4 3 16 27
26 53 10 26 27 60 38 75 12 15 19 30 16 32 -6 6 -209 13 -214 7z"/>
</g>
</svg>
